<svg xmlns="http://www.w3.org/2000/svg" viewBox="0 0 100 100">
    <path d="M72.7 30.8h5.4c1.4 0 2.6-1.2 2.7-2.7v-5.4c0-1.5-1.2-2.7-2.7-2.7h-5.4c-1.5 0-2.7 1.2-2.7 2.7v5.4c0 1.5 1.2 2.7 2.7 2.7z"
        fill="none" />
    <path d="M50 26.5c7.3 0 13.8 3.3 18.1 8.5h22.2v-6.5c0-10.3-8.5-18.8-18.8-18.8h-43c-10.3 0-18.8 8.5-18.8 18.8V35h22.2c4.3-5.2 10.8-8.5 18.1-8.5zm20-3.8c0-1.5 1.2-2.7 2.7-2.7h5.4c1.5 0 2.7 1.2 2.7 2.7v5.4c-.1 1.5-1.3 2.7-2.7 2.7h-5.4c-1.5 0-2.7-1.2-2.7-2.7v-5.4zM73.5 50C73.5 63 63 73.5 50 73.5S26.5 63 26.5 50c0-3.2.6-6.2 1.8-9H9.7v30.5c0 10.3 8.5 18.8 18.8 18.8h43c10.3 0 18.8-8.5 18.8-18.8V41H71.7c1.2 2.8 1.8 5.8 1.8 9z" />
    <path d="M57.1 41c-2-1.6-4.4-2.5-7.1-2.5-2.7 0-5.2.9-7.1 2.5-2.7 2.1-4.4 5.4-4.4 9 0 6.3 5.2 11.5 11.5 11.5S61.5 56.3 61.5 50c0-3.6-1.7-6.9-4.4-9z" />
</svg>