<svg width="48" height="48" viewBox="0 0 48 48" fill="none" xmlns="http://www.w3.org/2000/svg">
<path d="M46.6561 26.3242H46.6476C45.993 26.3242 45.4391 26.7517 45.3272 27.3335C44.6134 31.0444 41.0159 43.3411 25.1182 45.1812C24.8676 45.2105 24.61 45.1469 24.4087 45.0097C24.1665 44.8446 24.0258 44.5854 24.0279 44.3117L24.1841 27.5152C32.0436 27.5152 38.2314 21.0572 36.5871 13.7004C36.345 12.6155 35.922 11.6011 35.3638 10.6654V0.927245C35.3638 0.102763 34.2587 -0.310114 33.6133 0.272995L28.1125 5.23704C26.8314 4.85846 25.4722 4.64758 24.0736 4.64758H24.0194C22.1225 4.64758 20.279 4.85275 18.5088 5.22815L13.0179 0.272995C12.3717 -0.310114 11.2673 0.102763 11.2673 0.927245V7.95567C4.05611 12.0412 -0.581023 19.4864 0.0587999 27.8608C0.875296 38.5498 10.4712 47.2094 22.3154 47.9469C35.8671 48.7904 47.229 39.4829 47.9977 27.608C48.0427 26.9124 47.4282 26.3242 46.6561 26.3242ZM30.0404 17.9949C30.6443 17.3445 31.061 15.9833 31.061 14.4042C31.061 12.8441 30.6542 11.4962 30.0622 10.8369C31.905 11.1786 33.2909 12.6504 33.2909 14.4143C33.2902 16.1852 31.8937 17.6608 30.0404 17.9949ZM28.4243 10.8369C27.8323 11.4962 27.4255 12.8441 27.4255 14.4042C27.4255 15.9833 27.8422 17.3445 28.4461 17.9949C26.5928 17.6608 25.1956 16.1852 25.1956 14.4143C25.1956 12.6504 26.5815 11.1786 28.4243 10.8369ZM13.6696 14.4143C13.6696 12.6504 15.0556 11.1786 16.8983 10.8369C16.3064 11.4962 15.8995 12.8441 15.8995 14.4042C15.8995 15.9833 16.3162 17.3445 16.9201 17.9949C15.0668 17.6608 13.6696 16.1852 13.6696 14.4143ZM18.5144 17.9949C19.1183 17.3445 19.535 15.9833 19.535 14.4042C19.535 12.8441 19.1282 11.4962 18.5362 10.8369C20.379 11.1786 21.7649 12.6504 21.7649 14.4143C21.7642 16.1852 20.3677 17.6608 18.5144 17.9949ZM23.4035 19.9532C23.2895 20.1184 23.0228 20.1184 22.9087 19.9532L21.867 18.4478C21.7459 18.2725 21.8853 18.0451 22.1147 18.0451H24.1975C24.4263 18.0451 24.5663 18.2725 24.4453 18.4478L23.4035 19.9532Z" fill="black"/>
</svg>
