<svg width="285" height="163" xmlns="http://www.w3.org/2000/svg"><path d="M139.247 162.177h16.974s5.125-.565 7.746-3.386c2.409-2.592 2.332-7.457 2.332-7.457s-.332-22.775 10.237-26.129c10.423-3.307 23.804 22.012 37.986 31.748 10.725 7.365 18.875 5.753 18.875 5.753l37.925-.529s19.838-1.225 10.431-16.823c-.77-1.272-5.479-11.537-28.199-32.625-23.78-22.071-20.594-18.502 8.053-56.68 17.443-23.251 24.418-37.445 22.237-43.525-2.076-5.792-14.907-4.262-14.907-4.262l-42.699.265s-3.168-.432-5.516.973c-2.295 1.373-3.768 4.581-3.768 4.581s-6.761 17.991-15.771 33.294c-19.014 32.286-26.616 33.995-29.726 31.987-7.23-4.673-5.424-18.77-5.424-28.786 0-31.29 4.746-44.336-9.242-47.712-4.641-1.121-8.061-1.862-19.93-1.982-15.237-.156-28.13.046-35.432 3.623-4.858 2.38-8.606 7.679-6.322 7.985 2.823.376 9.213 1.725 12.601 6.335 4.377 5.955 4.223 19.323 4.223 19.323s2.515 36.833-5.872 41.407c-5.755 3.139-13.651-3.269-30.603-32.561-8.684-15.003-15.242-31.591-15.242-31.591s-1.263-3.099-3.52-4.758c-2.736-2.01-6.559-2.647-6.559-2.647l-40.578.265s-6.09.17-8.328 2.819c-1.991 2.358-.159 7.229-.159 7.229s31.766 74.323 67.737 111.776c32.988 34.345 70.44 32.09 70.44 32.09z" fill-rule="nonzero"/></svg>
